PathFileType	4	(X/Y/Z)	/Users/niels/Desktop/University/Third Semester/Perception and Action/Exam/Gymnastics Motion Tracking/Code for Gym Tracking/Analyzed Data/Webcam_Backflip/id19_5_trajectory_Sports2D/id19_5_trajectory_Sports2D_px_person00.trc
DataRate	CameraRate	NumFrames	NumMarkers	Units	OrigDataRate	OrigDataStartFrame	OrigNumFrames
29.714285714285715	29.714285714285715	7	22	m	29.714285714285715	26	105
Frame#	Time	Hip			RHip			RKnee			RAnkle			RBigToe			RSmallToe			RHeel			LHip			LKnee			LAnkle			LBigToe			LSmallToe			LHeel			Neck			Head			Nose			RShoulder			RElbow			RWrist			LShoulder			LElbow			LWrist		
		X1	Y1	Z1	X2	Y2	Z2	X3	Y3	Z3	X4	Y4	Z4	X5	Y5	Z5	X6	Y6	Z6	X7	Y7	Z7	X8	Y8	Z8	X9	Y9	Z9	X10	Y10	Z10	X11	Y11	Z11	X12	Y12	Z12	X13	Y13	Z13	X14	Y14	Z14	X15	Y15	Z15	X16	Y16	Z16	X17	Y17	Z17	X18	Y18	Z18	X19	Y19	Z19	X20	Y20	Z20	X21	Y21	Z21	X22	Y22	Z22
26	0.875	0.9505246113187505	-0.3905644082601203	0.0	0.9372987534632703	-0.3767336619702775	0.0	1.005392825899414	-0.30854196379612336	0.0	1.0984566499509563	-0.3515767583401194	0.0	1.1426987617779427	-0.3351569610303911	0.0	1.1299641510061722	-0.33561582054069483	0.0	1.0995243132280579	-0.36732350370748823	0.0	0.9539046235349667	-0.4071777200535835	0.0	1.039064202320581	-0.33185494076481536	0.0	1.1142560010986247	-0.35693309189710126	0.0	1.152573086523822	-0.33476949094966246	0.0	1.1549536416220059	-0.3465349190842719	0.0	1.1286144264363565	-0.3730003455332826	0.0	0.8130259829063424	-0.5187858037095917	0.0	0.7726329845753813	-0.5965759939682005	0.0	0.7745103091054129	-0.5496182780047907	0.0	0.7975233878455272	-0.4829407570865396	0.0	0.8053176803935943	-0.4050891412780775	0.0	0.7722805388914593	-0.3290301136810604	0.0	0.8473891653944495	-0.5219357612433662	0.0	0.8897663920462302	-0.4774147476516962	0.0	0.8440152711362507	-0.4397316005932364	0.0
27	0.9086538461538461	0.951005046611085	-0.38345328875578005	0.0	0.935602905058613	-0.36963733081413586	0.0	0.9743093622911303	-0.2804332681163427	0.0	1.0746422964034938	-0.2755702173675209	0.0	1.1085346079945904	-0.24373793288604845	0.0	1.0962736387583933	-0.24304471888543436	0.0	1.077077180485958	-0.2872090273808275	0.0	0.9573011745202066	-0.40248965425458394	0.0	1.0123214765133621	-0.3057253839046331	0.0	1.0933135425524056	-0.28637699604271455	0.0	1.1201992983301672	-0.25041871639889707	0.0	1.1239354458757913	-0.26237343469086705	0.0	1.1130774058912813	-0.2925167362510451	0.0	0.8195171215840281	-0.5256569046071451	0.0	0.7819369753671209	-0.6006635952755127	0.0	0.780158295885512	-0.5534341768684574	0.0	0.802983619415139	-0.4868458542622098	0.0	0.8119194748844423	-0.4035671272656367	0.0	0.7791158394536152	-0.32505100800728887	0.0	0.8541020220879763	-0.5262685574120294	0.0	0.8917885011959015	-0.4722938105168122	0.0	0.8492135194094605	-0.42840903814277137	0.0
28	0.9423076923076923	0.9520642586968007	-0.3800204984761596	0.0	0.9355863126058841	-0.3676165855590115	0.0	0.9410580432130076	-0.26724381547840015	0.0	1.03242218857619	-0.21529498821520313	0.0	1.0493715729549813	-0.17587539198216	0.0	1.0410169830709597	-0.17399556208522937	0.0	1.0363008210331721	-0.22149574485853338	0.0	0.9608449133769125	-0.3995122942633459	0.0	0.980654636596708	-0.29231335228427563	0.0	1.0522803551175286	-0.23209324763689546	0.0	1.0623375273584708	-0.18797055127449938	0.0	1.0674856747619583	-0.19924528642184283	0.0	1.0761109684964167	-0.22611070939902517	0.0	0.829396490613504	-0.5315255894102607	0.0	0.7960361792466649	-0.6049919700165447	0.0	0.7898739559330538	-0.558575605407135	0.0	0.8113625365742936	-0.49126425925029216	0.0	0.8148921411496998	-0.4030784723608026	0.0	0.7788889158555263	-0.32534934301853274	0.0	0.8625179595269924	-0.5293628571022859	0.0	0.8920083198741269	-0.4669695111888054	0.0	0.8553941601157546	-0.4154661280622143	0.0
29	0.9759615384615384	0.9536495943807429	-0.378341383798924	0.0	0.9373560311208977	-0.3684664917575743	0.0	0.9085562571540974	-0.2677775300886303	0.0	0.9777194542979939	-0.17774010652809796	0.0	0.974136319210127	-0.13841380155030902	0.0	0.9716685521062074	-0.1359130989222518	0.0	0.9822409037348145	-0.17780510489406492	0.0	0.9639895291565229	-0.3967099377016938	0.0	0.9468183576827879	-0.29053857362473745	0.0	0.9966655688504988	-0.19995863142099707	0.0	0.9869136555070473	-0.15243949969818493	0.0	0.9933447817500898	-0.16337611480794523	0.0	1.022903458840131	-0.18052338983529975	0.0	0.8426027598897939	-0.5363204308972678	0.0	0.8151634675796451	-0.6097591280054045	0.0	0.803981568196509	-0.5658405476174582	0.0	0.8227459444559239	-0.4964398688620808	0.0	0.8146342711472484	-0.4053828327915382	0.0	0.772309795809827	-0.3329878250260005	0.0	0.8734913106792436	-0.5315671556480575	0.0	0.8932767387079824	-0.4637519964713248	0.0	0.863453139911793	-0.4080339458792767	0.0
30	1.0096153846153846	0.9550428627635603	-0.37703802972824846	0.0	0.9397415262589484	-0.3700871001604928	0.0	0.8787117640232455	-0.27975437707695733	0.0	0.9181582633454574	-0.1663377091752805	0.0	0.8947342710936095	-0.13348590507157124	0.0	0.8977185213361398	-0.1306890473184964	0.0	0.9216305812529804	-0.15999203016049798	0.0	0.9662367988473161	-0.39355510642649283	0.0	0.914063147893917	-0.29802931649839154	0.0	0.9355151713503456	-0.19202153285100174	0.0	0.9057648981049486	-0.14546056370727234	0.0	0.9127087850423791	-0.15712143445604526	0.0	0.9620810317467043	-0.15909675304915571	0.0	0.8588041399090507	-0.5404867198621763	0.0	0.8390685931082824	-0.615022310638197	0.0	0.8224339395058523	-0.5752953673189992	0.0	0.8369561531756764	-0.5025591959473001	0.0	0.8125220672827619	-0.41219495216552376	0.0	0.7621265280415146	-0.3506352406071705	0.0	0.8875424416074454	-0.5333161104179213	0.0	0.8977091567002847	-0.4640629828071675	0.0	0.8740115977249017	-0.41163068158096433	0.0
31	1.0432692307692306	0.9549060998086469	-0.3759049664378084	0.0	0.9406001302329224	-0.3716430655093214	0.0	0.8525636513469438	-0.3006268297961832	0.0	0.8600486931160005	-0.18033575864093201	0.0	0.8212058308630026	-0.15871717228842167	0.0	0.8276008394611475	-0.15539714518896744	0.0	0.8609396038301802	-0.1676684812819397	0.0	0.9670878891054786	-0.3904025453837687	0.0	0.8855077236081368	-0.31210143497278764	0.0	0.878015674126386	-0.2056259782246268	0.0	0.8295532490885484	-0.16525615949157582	0.0	0.8358638349953945	-0.17845156083210634	0.0	0.9023681390886326	-0.161775127058486	0.0	0.8774445503917676	-0.5444714428976177	0.0	0.8670299376541538	-0.6204655712577385	0.0	0.8447629352123674	-0.5861205416534913	0.0	0.8534954061761842	-0.5094872337442743	0.0	0.8102840256627125	-0.42467058446764383	0.0	0.7521096366928051	-0.3796855173314901	0.0	0.9046761903536235	-0.5348698979289495	0.0	0.9065203530857209	-0.4688954345118862	0.0	0.8881024427033587	-0.42872797391778067	0.0
32	1.0769230769230769	0.9520655271221272	-0.3759036590941883	0.0	0.938158844841761	-0.374026701193523	0.0	0.8306249296713132	-0.32825962444878487	0.0	0.8076118160292209	-0.21612860773165576	0.0	0.7598074040819228	-0.2088793279008281	0.0	0.7670097035011145	-0.20441060993665172	0.0	0.8050159806286883	-0.19792394008967007	0.0	0.9661854074096489	-0.3882612625153264	0.0	0.8636862327520634	-0.33106222879396063	0.0	0.8312006274262215	-0.2354620296716048	0.0	0.7650482819056952	-0.2077525318040234	0.0	0.7701844096884382	-0.22265232196009432	0.0	0.8506750491900467	-0.18655126314019238	0.0	0.8976883611443502	-0.5483226388313274	0.0	0.8978071458002421	-0.6254915330663451	0.0	0.8701409897019406	-0.5970724103139468	0.0	0.8715105211323736	-0.5168052879107295	0.0	0.8095234744315939	-0.4432054879526929	0.0	0.7459610867606417	-0.4196745231584737	0.0	0.9242405793990428	-0.5363789464352554	0.0	0.9197461576489494	-0.4791509400835397	0.0	0.9061206592259792	-0.4585458527647566	0.0
